<svg width="30" height="30" viewBox="0 0 30 30" fill="none" xmlns="http://www.w3.org/2000/svg">
<g clip-path="url(#clip0)">
<path d="M0.183105 14.558L9.55811 5.183C9.80227 4.93884 10.1978 4.93884 10.4419 5.183C10.686 5.42716 10.686 5.82266 10.4419 6.06677L2.13375 14.3749L29.375 14.3749C29.7204 14.3749 30 14.6544 30 14.9999C30 15.3454 29.7204 15.6249 29.375 15.6249L2.13375 15.6249L10.4419 23.933C10.686 24.1772 10.686 24.5727 10.4419 24.8168C10.3198 24.9388 10.1599 24.9999 9.99996 24.9999C9.84006 24.9999 9.68015 24.9388 9.55804 24.8168L0.183045 15.4418C-0.0610551 15.1977 -0.0610551 14.8022 0.183105 14.558Z" fill="#022227"/>
</g>
<defs>
<clipPath id="clip0">
<rect width="30" height="30" fill="white" transform="matrix(-1 -8.74228e-08 -8.74228e-08 1 30 0)"/>
</clipPath>
</defs>
</svg>
