<svg width="30" height="30" viewBox="0 0 30 30" fill="none" xmlns="http://www.w3.org/2000/svg">
<g clip-path="url(#clip0)">
<path d="M29.8169 15.442L20.4419 24.817C20.1977 25.0612 19.8022 25.0612 19.5581 24.817C19.314 24.5728 19.314 24.1773 19.5581 23.9332L27.8663 15.6251H0.62502C0.279551 15.6251 0 15.3456 0 15.0001C0 14.6546 0.279551 14.3751 0.62502 14.3751H27.8663L19.5581 6.067C19.314 5.82284 19.314 5.42733 19.5581 5.18323C19.6802 5.06118 19.8401 5.00013 20 5.00013C20.1599 5.00013 20.3198 5.06118 20.442 5.18323L29.817 14.5582C30.0611 14.8023 30.0611 15.1978 29.8169 15.442Z" fill="#022227"/>
</g>
<defs>
<clipPath id="clip0">
<rect width="30" height="30" fill="white" transform="matrix(1 0 0 -1 0 30)"/>
</clipPath>
</defs>
</svg>
