<svg width="45" height="45" viewBox="0 0 45 45" fill="none" xmlns="http://www.w3.org/2000/svg">
<g clip-path="url(#clip0)">
<path d="M43.6377 40.7685H42.0857C42.0862 40.7537 42.0879 40.7394 42.0879 40.7245V37.7626C42.0879 37.0114 41.4768 36.4003 40.7256 36.4003H40.6296C40.63 36.3856 40.6318 36.3712 40.6318 36.3564V33.3944C40.6318 32.6432 40.0207 32.0321 39.2695 32.0321H37.7197V20.246H39.9255L40.2945 20.5658C40.8725 21.0668 41.7503 21.004 42.2514 20.426L43.205 19.3256C43.7059 18.7476 43.6432 17.8697 43.0652 17.3688L23.4086 0.337973C22.8906 -0.111059 22.1094 -0.110971 21.5916 0.337885L5.44237 14.3312C5.16718 14.5695 5.13739 14.9859 5.37584 15.2611C5.61437 15.5363 6.03071 15.5659 6.30563 15.3275L22.455 1.33412C22.4807 1.3118 22.5194 1.31189 22.5451 1.3343L42.2018 18.3651C42.2304 18.39 42.2335 18.4336 42.2086 18.4622L41.2551 19.5624C41.23 19.5912 41.1865 19.5942 41.1578 19.5694L23.4086 4.19153C22.8905 3.74258 22.1094 3.74276 21.5916 4.19144L2.38607 20.8326C2.37183 20.845 2.35469 20.8505 2.33615 20.8492C2.31725 20.8478 2.30134 20.8399 2.28895 20.8256L1.33534 19.7253C1.31046 19.6966 1.31363 19.653 1.34219 19.6282L4.30788 17.0584C4.58306 16.8201 4.61286 16.4037 4.37441 16.1285C4.13588 15.8534 3.71954 15.8237 3.44462 16.0621L0.478757 18.632C0.198738 18.8747 0.030076 19.2118 0.00362101 19.5814C-0.022834 19.951 0.0963454 20.3088 0.339011 20.5888L1.29271 21.6891C1.53546 21.9691 1.87261 22.1378 2.24219 22.1642C2.27603 22.1667 2.30969 22.1679 2.34309 22.1679C2.67646 22.1679 2.99515 22.0494 3.24942 21.8289L5.07631 20.246H7.28033V37.8563H7.18664C6.43544 37.8563 5.82434 38.4674 5.82434 39.2186V40.7684H1.36241C0.611208 40.7684 0.000105389 41.3795 0.000105389 42.1307V43.6365C0.000105389 44.3877 0.611208 44.9988 1.36241 44.9988H5.16525C5.52938 44.9988 5.82443 44.7037 5.82443 44.3396C5.82443 43.9756 5.52938 43.6804 5.16525 43.6804H1.36241C1.33824 43.6804 1.31846 43.6608 1.31846 43.6365V42.1307C1.31846 42.1064 1.33824 42.0867 1.36241 42.0867H43.6377C43.6619 42.0867 43.6817 42.1064 43.6817 42.1307V43.6365C43.6817 43.6608 43.6619 43.6804 43.6377 43.6804H7.80188C7.43775 43.6804 7.1427 43.9756 7.1427 44.3396C7.1427 44.7037 7.43775 44.9988 7.80188 44.9988H43.6377C44.3889 44.9988 45 44.3877 45 43.6365V42.1307C45 41.3796 44.3889 40.7685 43.6377 40.7685ZM39.3135 33.3944V36.3564C39.3135 36.3806 39.2937 36.4003 39.2696 36.4003H37.7198V33.3505H39.2696C39.2937 33.3505 39.3135 33.3702 39.3135 33.3944ZM26.2113 40.7685H12.9668V39.2187C12.9668 38.4675 12.3557 37.8564 11.6045 37.8564H11.5109V30.4384H33.4893V32.0321H29.0273C28.2761 32.0321 27.665 32.6432 27.665 33.3944V36.3564C27.665 36.3712 27.6668 36.3856 27.6672 36.4003H27.5713C26.8201 36.4003 26.209 37.0114 26.209 37.7626V40.7245C26.209 40.7393 26.2108 40.7537 26.2113 40.7685ZM18.9288 20.246V20.3397C18.9288 21.0909 19.5399 21.702 20.2911 21.702H24.709C25.4602 21.702 26.0713 21.0909 26.0713 20.3397V20.246H33.4893V26.208H11.5109V20.246H18.9288ZM24.709 14.5594H24.6153V6.98126L35.0428 16.0155H26.0713V15.9217C26.0713 15.1706 25.4602 14.5594 24.709 14.5594ZM24.709 15.8778C24.7332 15.8778 24.753 15.8975 24.753 15.9217V20.3397C24.753 20.364 24.7332 20.3837 24.709 20.3837H20.2911C20.2669 20.3837 20.2472 20.364 20.2472 20.3397V15.9217C20.2472 15.8975 20.2669 15.8778 20.2911 15.8778H24.709ZM20.2911 14.5594C19.5399 14.5594 18.9288 15.1705 18.9288 15.9217V16.0155H9.95862L20.3849 6.98144V14.5594H20.2911ZM36.4014 36.4002H31.8955V33.3504H36.4014V36.4002ZM11.5109 27.5263H33.4893V29.12H11.5109V27.5263ZM28.9835 36.3563V33.3944C28.9835 33.3701 29.0033 33.3504 29.0274 33.3504H30.5773V36.4002H29.0274C29.0032 36.4002 28.9835 36.3805 28.9835 36.3563ZM37.8575 37.7186V40.7684H30.4396V37.7186H37.8575ZM36.4014 32.0321H34.8076V20.246H36.4014V32.0321ZM26.0713 18.9277V17.334H36.5644L38.4039 18.9277H26.0713ZM22.5452 5.18786L23.297 5.83912V14.5595H21.7032V5.83912L22.4551 5.18768C22.4807 5.16553 22.5195 5.16544 22.5452 5.18786ZM8.43715 17.3339H18.9288V18.9276H6.59778L8.43715 17.3339ZM8.59869 20.246H10.1925V37.8564H8.59869V20.246ZM7.1427 40.7685V39.2187C7.1427 39.1944 7.16247 39.1747 7.18664 39.1747H7.93951H10.8517H11.6045C11.6287 39.1747 11.6485 39.1944 11.6485 39.2187V40.7685H7.1427ZM27.5274 40.7245V37.7626C27.5274 37.7383 27.5472 37.7187 27.5713 37.7187H29.0273H29.121V40.7685H27.5713C27.5472 40.7685 27.5274 40.7488 27.5274 40.7245ZM39.1759 40.7685V37.7187H39.2696H40.7256C40.7498 37.7187 40.7696 37.7383 40.7696 37.7626V40.7245C40.7696 40.7488 40.7498 40.7685 40.7256 40.7685H39.1759Z" fill="black"/>
<path d="M22.3181 18.7898H22.6821C23.0462 18.7898 23.3413 18.4947 23.3413 18.1306C23.3413 17.7666 23.0462 17.4714 22.6821 17.4714H22.3181C21.954 17.4714 21.6589 17.7666 21.6589 18.1306C21.6589 18.4947 21.954 18.7898 22.3181 18.7898Z" fill="black"/>
</g>
<defs>
<clipPath id="clip0">
<rect width="45" height="45" fill="white"/>
</clipPath>
</defs>
</svg>
