<svg width="30" height="20" viewBox="0 0 30 20" fill="none" xmlns="http://www.w3.org/2000/svg">
<path d="M29.8169 10.4419L20.4419 19.8169C20.1977 20.061 19.8022 20.061 19.5581 19.8169C19.314 19.5727 19.314 19.1772 19.5581 18.9331L27.8663 10.625H0.62502C0.279551 10.625 0 10.3454 0 9.99996C0 9.6545 0.279551 9.37495 0.62502 9.37495H27.8663L19.5581 1.06688C19.314 0.82272 19.314 0.427212 19.5581 0.183111C19.6802 0.06106 19.8401 5.72205e-06 20 5.72205e-06C20.1599 5.72205e-06 20.3198 0.06106 20.442 0.183111L29.817 9.55811C30.0611 9.80221 30.0611 10.1977 29.8169 10.4419Z" fill="#F0F2F4"/>
</svg>
