<svg width="30" height="30" viewBox="0 0 30 30" fill="none" xmlns="http://www.w3.org/2000/svg">
<path d="M14.9998 4.8913C15.3585 4.8913 15.652 4.59782 15.652 4.23912V3.91304C15.652 3.55434 15.3585 3.26086 14.9998 3.26086C14.6411 3.26086 14.3477 3.55434 14.3477 3.91304V4.23912C14.3477 4.59782 14.6411 4.8913 14.9998 4.8913Z" fill="#022227"/>
<path d="M14.9998 25.1087C14.6411 25.1087 14.3477 25.4022 14.3477 25.7609V26.087C14.3477 26.4457 14.6411 26.7391 14.9998 26.7391C15.3585 26.7391 15.652 26.4457 15.652 26.087V25.7609C15.652 25.4022 15.3585 25.1087 14.9998 25.1087Z" fill="#022227"/>
<path d="M4.239 14.3478H3.91291C3.55422 14.3478 3.26074 14.6413 3.26074 15C3.26074 15.3587 3.55422 15.6522 3.91291 15.6522H4.239C4.5977 15.6522 4.89117 15.3587 4.89117 15C4.89117 14.6413 4.5977 14.3478 4.239 14.3478Z" fill="#022227"/>
<path d="M26.0867 14.3478H25.7606C25.4019 14.3478 25.1084 14.6413 25.1084 15C25.1084 15.3587 25.4019 15.6522 25.7606 15.6522H26.0867C26.4454 15.6522 26.7388 15.3587 26.7388 15C26.7388 14.6413 26.4454 14.3478 26.0867 14.3478Z" fill="#022227"/>
<path d="M7.63018 6.71741C7.36931 6.45654 6.97801 6.45654 6.71714 6.71741C6.45627 6.97828 6.45627 7.36958 6.71714 7.63045L6.9454 7.85872C7.07583 7.98915 7.23888 8.05437 7.40192 8.05437C7.56496 8.05437 7.72801 7.98915 7.85844 7.85872C8.11931 7.59785 8.11931 7.20654 7.85844 6.94567L7.63018 6.71741Z" fill="#022227"/>
<path d="M6.9454 22.1413L6.71714 22.3696C6.45627 22.6305 6.45627 23.0218 6.71714 23.2826C6.84757 23.4131 7.01062 23.4783 7.17366 23.4783C7.3367 23.4783 7.49975 23.4131 7.63018 23.2826L7.85844 23.0544C8.11931 22.7935 8.11931 22.4022 7.85844 22.1413C7.59757 21.8805 7.20627 21.8805 6.9454 22.1413Z" fill="#022227"/>
<path d="M22.3692 6.71741L22.141 6.94567C21.8801 7.20654 21.8801 7.59785 22.141 7.85872C22.2714 7.98915 22.4344 8.05437 22.5975 8.05437C22.7605 8.05437 22.9236 7.98915 23.054 7.85872L23.2823 7.63045C23.5431 7.36958 23.5431 6.97828 23.2823 6.71741C23.0214 6.45654 22.6301 6.45654 22.3692 6.71741Z" fill="#022227"/>
<path d="M15.652 14.7391V8.80433C15.652 8.44564 15.3585 8.15216 14.9998 8.15216C14.6411 8.15216 14.3477 8.44564 14.3477 8.80433V15C14.3477 15.163 14.4129 15.3261 14.5433 15.4565L21.6846 22.5978C21.815 22.7282 21.9781 22.7935 22.1411 22.7935C22.3042 22.7935 22.4672 22.7282 22.5976 22.5978C22.8585 22.3369 22.8585 21.9456 22.5976 21.6848L15.652 14.7391Z" fill="#022227"/>
<path d="M15 0C6.71739 0 0 6.71739 0 15C0 23.2826 6.71739 30 15 30C23.2826 30 30 23.2826 30 15C30 6.71739 23.2826 0 15 0ZM15 28.6957C7.43478 28.6957 1.30435 22.5652 1.30435 15C1.30435 7.43478 7.43478 1.30435 15 1.30435C22.5652 1.30435 28.6957 7.43478 28.6957 15C28.6957 22.5652 22.5652 28.6957 15 28.6957Z" fill="#022227"/>
</svg>
