<svg width="30" height="30" viewBox="0 0 30 30" fill="none" xmlns="http://www.w3.org/2000/svg">
<path d="M19.8883 15.3191C19.6474 14.9175 19.3261 14.556 18.9245 14.2348C18.5229 13.9536 18.0008 13.6725 17.3984 13.4717C16.8763 13.3111 16.3141 13.1504 15.7117 12.9898V9.65655C16.033 9.73687 16.274 9.81719 16.4748 9.97782C16.796 10.2589 17.0771 10.6204 17.3181 11.1425C17.5189 11.5039 17.6795 11.7449 17.8402 11.8653C18.0008 12.026 18.2418 12.1063 18.5229 12.1063C18.8442 12.1063 19.1253 11.9858 19.3663 11.7449C19.6072 11.5039 19.6875 11.2228 19.6875 10.9015C19.6875 10.5401 19.6072 10.2188 19.4064 9.85735C19.2056 9.49591 18.9647 9.13447 18.5631 8.81319C18.1615 8.49191 17.6795 8.2108 17.1173 8.01C16.7157 7.88952 16.2338 7.8092 15.7117 7.76904V6.56424C15.7117 6.16265 15.3904 5.84137 14.9888 5.84137C14.5872 5.84137 14.266 6.16265 14.266 6.56424V7.76904C13.5832 7.8092 12.9809 7.96984 12.4186 8.17064C11.6957 8.45175 11.0933 8.89351 10.7319 9.45575C10.3303 10.018 10.1295 10.6605 10.1295 11.3834C10.1295 12.1465 10.3303 12.7488 10.6917 13.2709C11.0532 13.793 11.5753 14.1946 12.1777 14.4757C12.7399 14.7568 13.4226 14.9576 14.266 15.1584V19.2146C14.025 19.1744 13.784 19.0941 13.6234 19.0138C13.262 18.813 13.021 18.6122 12.8202 18.3311C12.6194 18.0499 12.4588 17.6885 12.2981 17.2869C12.1777 16.9255 12.017 16.6845 11.8162 16.4837C11.6154 16.3231 11.3745 16.2026 11.0933 16.2026C10.7319 16.2026 10.4508 16.3231 10.25 16.564C10.009 16.805 9.92871 17.0459 9.92871 17.3672C9.92871 17.9295 10.1295 18.4917 10.4909 19.0539C10.8524 19.6563 11.3343 20.0981 11.9367 20.4595C12.5793 20.821 13.3825 21.0619 14.3061 21.1422V23.4715C14.3061 23.8731 14.6274 24.1944 15.029 24.1944C15.4306 24.1944 15.7519 23.8731 15.7519 23.4715V21.1422C16.5551 21.1021 17.2779 20.9013 17.8803 20.6202C18.6434 20.2587 19.2458 19.7768 19.6474 19.1342C20.049 18.4917 20.2498 17.809 20.2498 17.0058C20.2498 16.3632 20.1293 15.801 19.8883 15.3191ZM14.266 12.6284C14.2258 12.5882 14.1856 12.5882 14.1455 12.5882C13.9045 12.5079 13.6234 12.3874 13.3825 12.2669C13.1415 12.1465 12.9407 11.9858 12.7801 11.785C12.6194 11.5842 12.5793 11.3834 12.5793 11.1023C12.5793 10.7007 12.7801 10.3393 13.2218 10.018C13.5029 9.81719 13.8644 9.69671 14.266 9.61639V12.6284ZM16.9165 18.6925C16.5952 18.9334 16.1936 19.0941 15.7117 19.1744V15.5199C15.9125 15.56 16.0732 15.6404 16.2338 15.6805C16.6354 15.8411 16.9968 16.0419 17.2378 16.2829C17.5189 16.564 17.6394 16.8853 17.6394 17.3271C17.6394 17.8491 17.3984 18.3311 16.9165 18.6925Z" fill="#022227"/>
<path d="M15 0C6.75 0 0 6.71429 0 15C0 23.2857 6.71429 30 15 30C23.2857 30 30 23.2857 30 15C30 6.71429 23.25 0 15 0ZM15 28.7143C7.42857 28.7143 1.28571 22.5714 1.28571 15C1.28571 7.42857 7.42857 1.28571 15 1.28571C22.5714 1.28571 28.7143 7.42857 28.7143 15C28.7143 22.5714 22.5714 28.7143 15 28.7143Z" fill="#022227"/>
</svg>
