<svg width="41" height="39" viewBox="0 0 41 39" fill="none" xmlns="http://www.w3.org/2000/svg">
<g clip-path="url(#clip0)">
<path d="M1.40015 37.8002H8.70015L23.6001 22.7002H39.5001" stroke="#022227" stroke-width="1.5" stroke-miterlimit="10" stroke-linecap="round" stroke-linejoin="round"/>
<path d="M12.2001 23.4001L24.7001 11.3001V3.40011C24.7001 0.70011 21.2001 -0.29989 19.7001 2.00011L8.6001 19.7001" stroke="#022227" stroke-width="1.5" stroke-miterlimit="10" stroke-linecap="round" stroke-linejoin="round"/>
<path d="M0.800049 15.3999L14.7 28.8999" stroke="#022227" stroke-width="1.5" stroke-miterlimit="10" stroke-linecap="round" stroke-linejoin="round"/>
<path d="M2.6001 17.2002V22.7002L8.6001 28.7002L14.2001 28.5002" stroke="#022227" stroke-width="1.5" stroke-miterlimit="10" stroke-linecap="round" stroke-linejoin="round"/>
<path d="M27.4001 3.5H39.5001" stroke="#022227" stroke-width="1.5" stroke-miterlimit="10" stroke-linecap="round" stroke-linejoin="round"/>
<path d="M27.4001 11.3003H39.5001" stroke="#022227" stroke-width="1.5" stroke-miterlimit="10" stroke-linecap="round" stroke-linejoin="round"/>
<path d="M35.3 36.1001H36.7C36.9 36.1001 37 36.2001 37 36.4001V37.8001C37 38.0001 36.9 38.1001 36.7 38.1001H35.3C35.1 38.1001 35 38.0001 35 37.8001V36.4001C35 36.3001 35.1 36.1001 35.3 36.1001Z" fill="#022227"/>
<path d="M30.4001 36.1001H31.8001C32.0001 36.1001 32.1001 36.2001 32.1001 36.4001V37.8001C32.1001 38.0001 32.0001 38.1001 31.8001 38.1001H30.4001C30.2001 38.1001 30.1001 38.0001 30.1001 37.8001V36.4001C30.1001 36.3001 30.2001 36.1001 30.4001 36.1001Z" fill="#022227"/>
<path d="M25.4001 36.1001H26.8001C27.0001 36.1001 27.1001 36.2001 27.1001 36.4001V37.8001C27.1001 38.0001 27.0001 38.1001 26.8001 38.1001H25.4001C25.2001 38.1001 25.1001 38.0001 25.1001 37.8001V36.4001C25.2001 36.3001 25.3001 36.1001 25.4001 36.1001Z" fill="#022227"/>
<path d="M20.5 36.1001H21.9C22.1 36.1001 22.2 36.2001 22.2 36.4001V37.8001C22.2 38.0001 22.1 38.1001 21.9 38.1001H20.5C20.3 38.1001 20.2 38.0001 20.2 37.8001V36.4001C20.2 36.3001 20.4 36.1001 20.5 36.1001Z" fill="#022227"/>
<path d="M15.6 36.1001H17C17.2 36.1001 17.3 36.2001 17.3 36.4001V37.8001C17.3 38.0001 17.2 38.1001 17 38.1001H15.6C15.4 38.1001 15.3 38.0001 15.3 37.8001V36.4001C15.3 36.3001 15.5 36.1001 15.6 36.1001Z" fill="#022227"/>
<path d="M35.3 31.3003H36.7C36.9 31.3003 37 31.4003 37 31.6003V33.0003C37 33.2003 36.9 33.3003 36.7 33.3003H35.3C35.1 33.3003 35 33.2003 35 33.0003V31.6003C35 31.4003 35.1 31.3003 35.3 31.3003Z" fill="#022227"/>
<path d="M30.4001 31.3003H31.8001C32.0001 31.3003 32.1001 31.4003 32.1001 31.6003V33.0003C32.1001 33.2003 32.0001 33.3003 31.8001 33.3003H30.4001C30.2001 33.3003 30.1001 33.2003 30.1001 33.0003V31.6003C30.1001 31.4003 30.2001 31.3003 30.4001 31.3003Z" fill="#022227"/>
<path d="M25.4001 31.3003H26.8001C27.0001 31.3003 27.1001 31.4003 27.1001 31.6003V33.0003C27.1001 33.2003 27.0001 33.3003 26.8001 33.3003H25.4001C25.2001 33.3003 25.1001 33.2003 25.1001 33.0003V31.6003C25.2001 31.4003 25.3001 31.3003 25.4001 31.3003Z" fill="#022227"/>
<path d="M20.5 31.3003H21.9C22.1 31.3003 22.2 31.4003 22.2 31.6003V33.0003C22.2 33.2003 22.1 33.3003 21.9 33.3003H20.5C20.3 33.3003 20.2 33.2003 20.2 33.0003V31.6003C20.2 31.4003 20.4 31.3003 20.5 31.3003Z" fill="#022227"/>
<path d="M35.3 26.3999H36.7C36.9 26.3999 37 26.4999 37 26.6999V28.0999C37 28.2999 36.9 28.3999 36.7 28.3999H35.3C35.1 28.3999 35 28.2999 35 28.0999V26.6999C35 26.4999 35.1 26.3999 35.3 26.3999Z" fill="#022227"/>
<path d="M30.4001 26.3999H31.8001C32.0001 26.3999 32.1001 26.4999 32.1001 26.6999V28.0999C32.1001 28.2999 32.0001 28.3999 31.8001 28.3999H30.4001C30.2001 28.3999 30.1001 28.2999 30.1001 28.0999V26.6999C30.1001 26.4999 30.2001 26.3999 30.4001 26.3999Z" fill="#022227"/>
<path d="M25.4001 26.3999H26.8001C27.0001 26.3999 27.1001 26.4999 27.1001 26.6999V28.0999C27.1001 28.2999 27.0001 28.3999 26.8001 28.3999H25.4001C25.2001 28.3999 25.1001 28.2999 25.1001 28.0999V26.6999C25.2001 26.4999 25.3001 26.3999 25.4001 26.3999Z" fill="#022227"/>
</g>
<defs>
<clipPath id="clip0">
<rect width="40.3" height="38.6" fill="white"/>
</clipPath>
</defs>
</svg>
