<svg width="41" height="40" viewBox="0 0 41 40" fill="none" xmlns="http://www.w3.org/2000/svg">
<g clip-path="url(#clip0)">
<path d="M0.800049 21.4V39.1H38.8V21.4C38.8 21.4 35.6 25 29.4 24.6C23.3 24.2 18.6 19.6 12.8 18.5C7.00005 17.4 4.30005 18.5 0.800049 21.4Z" stroke="#022227" stroke-width="1.5" stroke-miterlimit="10" stroke-linecap="round" stroke-linejoin="round"/>
<path d="M9.1001 0.799805V18.1998" stroke="#022227" stroke-width="1.5" stroke-miterlimit="10" stroke-linecap="round" stroke-linejoin="round"/>
<path d="M20.1001 0.799805V21.4998" stroke="#022227" stroke-width="1.5" stroke-miterlimit="10" stroke-linecap="round" stroke-linejoin="round"/>
<path d="M30.9001 0.799805V24.5998" stroke="#022227" stroke-width="1.5" stroke-miterlimit="10" stroke-linecap="round" stroke-linejoin="round"/>
<path d="M0.800049 6.19971H39.4001" stroke="#022227" stroke-width="1.5" stroke-miterlimit="10" stroke-linecap="round" stroke-linejoin="round"/>
<path d="M0.800049 13.5H39.4001" stroke="#022227" stroke-width="1.5" stroke-miterlimit="10" stroke-linecap="round" stroke-linejoin="round"/>
<path d="M8.10015 25.7999C9.03903 25.7999 9.80015 25.0388 9.80015 24.0999C9.80015 23.161 9.03903 22.3999 8.10015 22.3999C7.16126 22.3999 6.40015 23.161 6.40015 24.0999C6.40015 25.0388 7.16126 25.7999 8.10015 25.7999Z" fill="#022227"/>
<path d="M17 29.0997C17.9389 29.0997 18.7 28.3386 18.7 27.3997C18.7 26.4608 17.9389 25.6997 17 25.6997C16.0612 25.6997 15.3 26.4608 15.3 27.3997C15.3 28.3386 16.0612 29.0997 17 29.0997Z" fill="#022227"/>
<path d="M24.1001 34.2999C25.039 34.2999 25.8001 33.5388 25.8001 32.5999C25.8001 31.661 25.039 30.8999 24.1001 30.8999C23.1613 30.8999 22.4001 31.661 22.4001 32.5999C22.4001 33.5388 23.1613 34.2999 24.1001 34.2999Z" fill="#022227"/>
<path d="M32.3001 32.2999C33.239 32.2999 34.0001 31.5388 34.0001 30.5999C34.0001 29.661 33.239 28.8999 32.3001 28.8999C31.3612 28.8999 30.6001 29.661 30.6001 30.5999C30.6001 31.5388 31.3612 32.2999 32.3001 32.2999Z" fill="#022227"/>
<path d="M10.5 34.2999C11.4389 34.2999 12.2 33.5388 12.2 32.5999C12.2 31.661 11.4389 30.8999 10.5 30.8999C9.56116 30.8999 8.80005 31.661 8.80005 32.5999C8.80005 33.5388 9.56116 34.2999 10.5 34.2999Z" fill="#022227"/>
</g>
<defs>
<clipPath id="clip0">
<rect width="40.1" height="39.9" fill="white"/>
</clipPath>
</defs>
</svg>
