<svg width="35" height="40" viewBox="0 0 35 40" fill="none" xmlns="http://www.w3.org/2000/svg">
<g clip-path="url(#clip0)">
<path d="M19.3 39.2002L0.800049 33.5002V3.7002L19.3 17.8002V39.2002Z" stroke="#022227" stroke-width="1.5" stroke-miterlimit="10" stroke-linecap="round" stroke-linejoin="round"/>
<path d="M19.3 39.2002L34.3 30.7002L33.7001 0.800238C33.7001 0.800238 25.2 -0.299762 13.3 7.60024" stroke="#022227" stroke-width="1.5" stroke-miterlimit="10" stroke-linecap="round" stroke-linejoin="round"/>
<path d="M0.800049 3.6998L4.90005 1.2998L23.4 15.0998V36.8998" stroke="#022227" stroke-width="1.5" stroke-miterlimit="10" stroke-linecap="round" stroke-linejoin="round"/>
<path d="M23.4 15.1001L19.3 17.8001" stroke="#022227" stroke-width="1.5" stroke-miterlimit="10" stroke-linecap="round" stroke-linejoin="round"/>
<path d="M6.226 21.5313C6.64021 20.8139 6.2781 19.8293 5.4172 19.3323C4.5563 18.8352 3.52261 19.0139 3.1084 19.7313C2.69418 20.4487 3.0563 21.4332 3.9172 21.9303C4.7781 22.4273 5.81179 22.2487 6.226 21.5313Z" fill="#022227"/>
<path d="M6.30657 30.9844C6.72078 30.267 6.35867 29.2825 5.49777 28.7854C4.63686 28.2883 3.60318 28.467 3.18896 29.1844C2.77475 29.9018 3.13686 30.8863 3.99777 31.3834C4.85867 31.8805 5.89235 31.7018 6.30657 30.9844Z" fill="#022227"/>
<path d="M17.1051 25.4141C17.5194 24.6967 17.1572 23.7121 16.2963 23.2151C15.4354 22.718 14.4018 22.8967 13.9875 23.6141C13.5733 24.3315 13.9354 25.316 14.7963 25.8131C15.6572 26.3101 16.6909 26.1315 17.1051 25.4141Z" fill="#022227"/>
<path d="M6.2321 12.128C6.64632 11.4105 6.2842 10.426 5.4233 9.92895C4.5624 9.4319 3.52872 9.61054 3.1145 10.328C2.70029 11.0454 3.0624 12.0299 3.9233 12.527C4.7842 13.024 5.81789 12.8454 6.2321 12.128Z" fill="#022227"/>
<path d="M15.1 15.4999C15.5 14.7999 16.6 16.0999 16.6 16.0999C16.6 16.0999 18.6 16.5999 18.2 17.2999C17.8 17.9999 16.7 18.1999 15.9 17.6999C15.1 17.2999 14.7 16.2999 15.1 15.4999Z" fill="#022227"/>
<path d="M17.0402 33.8516C17.4544 33.1342 17.0923 32.1496 16.2314 31.6526C15.3705 31.1555 14.3368 31.3342 13.9226 32.0516C13.5084 32.769 13.8705 33.7535 14.7314 34.2506C15.5923 34.7476 16.626 34.569 17.0402 33.8516Z" fill="#022227"/>
</g>
<defs>
<clipPath id="clip0">
<rect width="35" height="40" fill="white"/>
</clipPath>
</defs>
</svg>
