<svg width="20" height="20" viewBox="0 0 20 20" fill="none" xmlns="http://www.w3.org/2000/svg">
<path d="M1.66668 2.5H18.3333C19.2525 2.5 20 3.24746 20 4.16668V15.8334C20 16.7525 19.2525 17.5 18.3333 17.5H1.66664C0.747459 17.5 0 16.7525 0 15.8333V4.16668C0 3.24746 0.747461 2.5 1.66668 2.5ZM18.3333 3.33332H1.66664C1.60523 3.33332 1.55113 3.3557 1.49352 3.36836C2.93645 4.68895 7.72098 9.06598 9.39531 10.5745C9.52633 10.6925 9.7375 10.8333 9.99996 10.8333C10.2624 10.8333 10.4736 10.6925 10.605 10.5741C12.2792 9.06582 17.064 4.68855 18.5067 3.36844C18.449 3.35578 18.3948 3.33332 18.3333 3.33332ZM19.1667 15.8333V4.16668C19.1667 4.08504 19.1421 4.01098 19.12 3.93637C18.0157 4.94715 14.6772 8.00121 12.5125 9.96969C14.6702 11.8231 18.0095 14.989 19.1227 16.0505C19.1423 15.9796 19.1667 15.9104 19.1667 15.8333ZM1.66668 16.6667H18.3333C18.3999 16.6667 18.4591 16.6435 18.5212 16.6286C17.3709 15.5321 14.0104 12.3479 11.8907 10.5345C11.6143 10.7852 11.3619 11.0138 11.1629 11.193C10.8195 11.5031 10.4175 11.6667 10 11.6667C9.5825 11.6667 9.18051 11.5031 8.8375 11.1934C8.63844 11.0141 8.38582 10.7853 8.10934 10.5345C5.98949 12.3477 2.62941 15.5316 1.47879 16.6286C1.54094 16.6435 1.60004 16.6667 1.66668 16.6667ZM0.833321 15.8333C0.833321 15.9103 0.857697 15.9796 0.877306 16.0505C1.9909 14.9885 5.32981 11.8229 7.48742 9.96973C5.32266 8.00125 1.98473 4.94746 0.879961 3.93629C0.857929 4.0109 0.833321 4.085 0.833321 4.16664V15.8333Z" fill="black"/>
</svg>
