<svg width="26" height="35" viewBox="0 0 26 35" fill="none" xmlns="http://www.w3.org/2000/svg">
<path d="M12.9292 0C5.79987 0 0 5.79987 0 12.9292C0 15.2762 1.05259 17.8004 1.0967 17.9069C1.43666 18.7138 2.10745 19.9672 2.59116 20.7019L11.456 34.1337C11.8188 34.6844 12.3557 35 12.9292 35C13.5026 35 14.0395 34.6844 14.4023 34.1345L23.2679 20.7019C23.7524 19.9672 24.4224 18.7138 24.7624 17.9069C24.8065 17.8012 25.8583 15.2769 25.8583 12.9292C25.8583 5.79987 20.0585 0 12.9292 0ZM23.36 17.3167C23.0565 18.04 22.4321 19.2059 21.9978 19.8645L13.1322 33.2971C12.9573 33.5626 12.9018 33.5626 12.7269 33.2971L3.86126 19.8645C3.42699 19.2059 2.80259 18.0392 2.49913 17.3159C2.4862 17.2848 1.52108 14.9613 1.52108 12.9292C1.52108 6.63874 6.63874 1.52108 12.9292 1.52108C19.2196 1.52108 24.3372 6.63874 24.3372 12.9292C24.3372 14.9644 23.3698 17.2939 23.36 17.3167Z" fill="#022227"/>
<path d="M12.9288 6.08511C9.15428 6.08511 6.08398 9.15617 6.08398 12.93C6.08398 16.7038 9.15428 19.7748 12.9288 19.7748C16.7034 19.7748 19.7737 16.7038 19.7737 12.93C19.7737 9.15617 16.7034 6.08511 12.9288 6.08511ZM12.9288 18.2537C9.99391 18.2537 7.60506 15.8657 7.60506 12.93C7.60506 9.99429 9.99391 7.60619 12.9288 7.60619C15.8637 7.60619 18.2526 9.99429 18.2526 12.93C18.2526 15.8657 15.8637 18.2537 12.9288 18.2537Z" fill="#022227"/>
</svg>
