<svg width="20" height="20" viewBox="0 0 20 20" fill="none" xmlns="http://www.w3.org/2000/svg">
<g clip-path="url(#clip0)">
<path d="M19.1674 13.9442L17.6176 12.3946C16.509 11.2859 14.7053 11.2859 13.5966 12.3946L12.5533 13.4377C12.1491 13.8422 11.5131 13.8707 11.0741 13.5043C9.4181 12.1223 7.87772 10.582 6.49574 8.92593C6.12937 8.48694 6.15806 7.85095 6.56242 7.44675L7.60551 6.4035C8.71406 5.29495 8.71406 3.49106 7.60551 2.38251L6.05582 0.832672C5.51887 0.295715 4.80476 0 4.04533 0C3.2859 0 2.57194 0.295715 2.03483 0.832672C0.876687 1.99097 0.162728 3.52768 0.0246359 5.15991C-0.113456 6.79199 0.332253 8.42682 1.27952 9.76318C3.74503 13.2413 6.75865 16.255 10.2369 18.7206C11.4139 19.5549 12.8223 20.0002 14.2567 20C14.4508 20 14.6456 19.9918 14.8402 19.9754C16.4724 19.8373 18.0091 19.1234 19.1672 17.9652C19.7044 17.4283 20.0001 16.7142 20.0001 15.9547C20.0001 15.1953 19.7044 14.4812 19.1674 13.9442ZM10.6887 18.0832C7.28263 15.6688 4.33128 12.7174 1.91688 9.31137C0.172951 6.85104 0.454934 3.51761 2.58735 1.38519C2.97675 0.995789 3.49464 0.78125 4.04533 0.78125C4.59617 0.78125 5.1139 0.995789 5.50346 1.38519L7.05314 2.93488C7.4427 3.32443 7.65708 3.84216 7.65708 4.39301C7.65708 4.94385 7.44254 5.46158 7.05314 5.85114L6.98875 5.91553L2.30369 1.55692C2.15111 1.40449 1.90376 1.40449 1.75117 1.55692C1.59874 1.70951 1.59874 1.95685 1.75117 2.10944L6.43623 6.46805L6.0099 6.89423C5.31791 7.58636 5.26878 8.67508 5.89591 9.42657C7.30781 11.1186 8.8816 12.6923 10.5735 14.1042C11.3251 14.7313 12.4137 14.6823 13.1058 13.9902L13.5322 13.564L17.9546 17.9865C15.8369 19.5807 12.9078 19.6561 10.6887 18.0832ZM18.6149 17.4127C18.5929 17.4347 18.5706 17.4562 18.5485 17.4777C18.541 17.4689 18.5334 17.4602 18.525 17.4518L14.0845 13.0113L14.1491 12.9469C14.5385 12.5575 15.0562 12.343 15.6071 12.343C16.1579 12.343 16.6756 12.5575 17.0652 12.9469L18.6149 14.4968C19.0044 14.8862 19.2188 15.4041 19.2188 15.9547C19.2188 16.5056 19.0043 17.0233 18.6149 17.4127Z" fill="black"/>
</g>
<defs>
<clipPath id="clip0">
<rect width="20" height="20" fill="white"/>
</clipPath>
</defs>
</svg>
